<?xml version="1.0" encoding="utf-8"?>
<!-- Generator: Adobe Illustrator 21.0.0, SVG Export Plug-In . SVG Version: 6.00 Build 0)  -->
<svg version="1.1" id="Layer_1" xmlns="http://www.w3.org/2000/svg" xmlns:xlink="http://www.w3.org/1999/xlink" x="0px" y="0px"
	 viewBox="0 0 1000 800" style="enable-background:new 0 0 1000 800;" xml:space="preserve">
<style type="text/css">
	.st0{fill:#A8A8A8;}
</style>
<g>
	<path d="M277.2,460.8c-7,0-11.9-5.5-11.9-16c0-15.4,11-42.7,11-45.9c-14.5,18.6-35.7,46.8-55.2,46.8c-7.3,0-11.6-4.6-11.6-13.7
		c0-21.2,21.8-68,23-70l15.1,3.8c-0.3,0.3-22.4,43.6-22.4,64.5c0,4.6,3.5,7,6.1,7c18.6,0,57.2-63.1,61-72.9l13.4,3.8
		c-0.3,0.6-25.9,53.8-25.9,81.1c0,4.1,2,5.2,4.4,5.2c4.4,0,15.7-15.4,25.6-32.5c12.2-20.9,24.1-44.2,24.7-45l1.7,0.9
		c-0.9,1.5-11.9,23.8-24.1,45C300.8,442.2,288.6,460.8,277.2,460.8z"/>
	<path d="M443.5,377.7c-0.3,0.9-51.7,87.2-68,87.2c-4.9,0-8.4-4.7-8.4-10.8c0-12.5,21.8-61,21.8-70.6c0-4.4-1.5-4.7-2.6-4.7
		c-5.8,0-17.4,15.1-26.2,25.9c-13.7,16.3-25,30.8-38.1,41c-1.5,0.6-2.6,0.6-4.6,0.6c-2.3,0-5.2-1.2-5.2-3.8
		c3.2-13.7,17.4-53.2,17.4-53.2c3.2-8.7,5.2-13.4,8.1-20.6l11.9,3.8c-1.7,4.9-17.7,46.5-21.5,60.2c3.8,0,15.7-13.9,28.5-30.5
		c8.1-10.8,23.8-34.6,39.8-36.6c6.7,0,9.6,4.4,9.6,10.8c0,15.1-25.6,59.9-25.6,78.8c0,1.5,0.3,2.9,1.7,2.9c9,0,57.8-77.9,59.6-81.1
		L443.5,377.7z"/>
	<path d="M513.5,381.8c0,0-9.3,18.9-24.1,18.9c-2.9,0-5.5-0.3-7.8-1.2c-6.4,15.4-25,46.5-45.9,46.5c-7.3,0-15.4-4.9-15.4-18
		c0-28.8,25.6-74.1,59.6-74.1c6.1,0,8.7,4.9,8.7,9c0,5.5-2.9,11.9-3.2,12.2l-1.7-1.2c0,0,2.9-5.8,2.9-11c0-3.8-2.3-6.4-6.4-6.4
		c-14.2,0-45,41.8-45,75c0,4.6,2.3,8.1,5.8,8.1c17.4,0,32-25.9,38.7-41c-6.1-2.6-10.8-7-10.8-14.5c0-6.1,5.2-9,9.9-9
		c12.5,0,6.7,14.5,3.8,22.4c2,0.6,4.4,1.2,7,1.2c14.2,0,22.1-17.4,22.1-17.7L513.5,381.8z M480.4,396.6c2-4.7,8.4-18.6-1.2-19.5
		c-4.1,0-6.7,2.3-6.7,7.3C472.5,390.8,475.4,394,480.4,396.6z"/>
	<path d="M608.5,376.8l1.7,0.9c-0.6,0.9-48.2,87.2-70.3,87.2c-5.2,0-8.4-4.7-8.4-10.8c0-9.3,7.3-31.7,15.4-54.1
		c-10.8,14.2-29.6,37.5-39.2,37.5c-9,0-14.2-7.6-14.2-16.6c0-26.4,27.3-67.1,52.6-67.1c12.8,0,6.7,18,6.7,18.3l-2,0.6
		c0,0,3.2-14.8-3.8-14.8c-18.3,0-38.9,45-38.9,67.7c0,3.8,1.5,5.2,4.4,5.2c8.4,0,28.2-26.2,37.2-37.8c9.3-25.3,18.9-48.5,20.1-51.7
		c21.2-58.7,40.7-92.7,60.2-102.3c16-7.6,17.4,2.6,17.4,5.8c0,24.7-72.9,124.1-77.3,129.6c-2,4.9-25,62.8-25,80.5
		c0,1.5,0.3,2.9,1.7,2.9C559.1,457.9,607.4,379.4,608.5,376.8z M572.5,367.2c3.8-4.9,72.1-102,72.1-121.5c0-2.3-0.6-13.4-13.1-3.8
		c-12.5,11-29.9,45.3-50,100.8C580.3,346.6,573.6,363.8,572.5,367.2z"/>
	<path d="M672.4,376.8l1.7,0.9c-1.2,3.2-37.2,67.4-64.8,67.4c-14.5,0-20.6-7.6-20.6-20.1c0-36.6,32.5-69.2,54.3-69.2
		c4.6,0,9.6,2,9.6,10.2c0,14.2-20.1,33.4-41.8,33.4c-3.8,8.4-7,21.8-7,29.9c0,4.1,1.2,10.5,7.6,10.5
		C637,439.9,672.4,377.1,672.4,376.8z M612,396.9c20.9,0,38.7-18.6,38.7-29.4c0-2.3-2-3.8-4.1-3.8
		C635.2,363.8,620.7,379.2,612,396.9z"/>
	<path class="st0" d="M655.3,439.9c0-5.5,3.5-9.6,7.6-11.9c2.3-1.2,6.7-1.7,8.7,0.9c1.2,1.2,1.5,2.6,1.5,4.4
		c0,6.7-5.8,12.8-12.2,12.8c-1.7,0-2.9-0.6-4.1-1.7C655.6,442.8,655.3,441.3,655.3,439.9z"/>
	<path class="st0" d="M682.9,433.5c0-18.9,26.7-70,27.6-71.5l13.1,3.8c-0.3,0.3-26.4,51.7-26.4,69.7c0,1.7,1.2,2.9,2.9,2.9
		c9.6,0,46.2-55.8,49.1-61.6l1.7,0.6c-2.6,5.2-40.7,68.3-59.3,68.3C685.8,445.7,682.9,441.6,682.9,433.5z M725.9,349.2
		c-4.6,0-8.1-3.5-8.1-8.1c0-4.4,3.5-8.1,8.1-8.1c4.4,0,8.1,3.8,8.1,8.1C734,345.7,730.3,349.2,725.9,349.2z"/>
	<path class="st0" d="M831.7,341.7c0-61.3-47.7-70.3-73.5-70.3c-51.7,0-102.3,51.7-150.5,51.7c-16.3,0-35.2-8.7-35.2-33.1
		c0-24.7,25.3-32.8,47.4-33.4h0.3v2.6h-0.3c-10.5,0-44.8,2.3-44.8,30.8c0,22.4,17.4,30.5,32.5,30.5c50.6,0,94.7-63.4,150.5-63.4
		c47.4,0,76.1,38.4,76.1,84.6c0,21.5-16.6,66.8-45.3,57.8c-6.4,15.4-25,46.5-45.9,46.5c-7.3,0-15.4-4.9-15.4-18
		c0-28.8,25.6-74.1,59.6-74.1c6.1,0,8.7,4.9,8.7,9c0,5.5-2.9,11.9-3.2,12.2l-1.7-1.2c0,0,2.9-5.8,2.9-11c0-3.8-2.3-6.4-6.4-6.4
		c-14.2,0-45,41.8-45,75c0,4.6,2.3,8.1,5.8,8.1c17.4,0,32-25.9,38.6-41c-6.1-2.6-10.8-7-10.8-14.5c0-6.1,5.2-9,9.9-9
		c12.5,0,6.7,14.5,3.8,22.4C817.2,405,831.7,361.1,831.7,341.7z M787.8,396.6c2-4.7,8.4-18.6-1.2-19.5c-4.1,0-6.7,2.3-6.7,7.3
		C780,390.8,782.9,394,787.8,396.6z"/>
</g>
</svg>
